<svg height="638" width="720" xmlns="http://www.w3.org/2000/svg">
<rect height="638" fill="#555" width="720"></rect>
<text fill="#7f7" font-family="Courier New" font-size="12" xml:space="preserve">
<tspan x="10" y="26">1 megabytes installed</tspan>
<tspan x="10" y="42"></tspan>
<tspan x="10" y="58">node_modules</tspan>
<tspan x="10" y="74">└─┬ empty-trash@2.1.1 </tspan>
<tspan x="10" y="90">  ├── path-exists@3.0.0 </tspan>
<tspan x="10" y="106">  ├── pify@2.3.0 </tspan>
<tspan x="10" y="122">  ├─┬ rimraf@2.6.1 </tspan>
<tspan x="10" y="138">  │ └─┬ glob@7.1.1 </tspan>
<tspan x="10" y="154">  │   ├── fs.realpath@1.0.0 </tspan>
<tspan x="10" y="170">  │   ├─┬ inflight@1.0.6 </tspan>
<tspan x="10" y="186">  │   │ └── wrappy@1.0.2 </tspan>
<tspan x="10" y="202">  │   ├── inherits@2.0.3 </tspan>
<tspan x="10" y="218">  │   ├─┬ minimatch@3.0.3 </tspan>
<tspan x="10" y="234">  │   │ └─┬ brace-expansion@1.1.7 </tspan>
<tspan x="10" y="250">  │   │   ├── balanced-match@0.4.2 </tspan>
<tspan x="10" y="266">  │   │   └── concat-map@0.0.1 </tspan>
<tspan x="10" y="282">  │   ├── once@1.4.0 </tspan>
<tspan x="10" y="298">  │   └── path-is-absolute@1.0.1 </tspan>
<tspan x="10" y="314">  ├─┬ run-applescript@3.0.0 </tspan>
<tspan x="10" y="330">  │ └─┬ execa@0.4.0 </tspan>
<tspan x="10" y="346">  │   ├─┬ cross-spawn-async@2.2.5 </tspan>
<tspan x="10" y="362">  │   │ ├─┬ lru-cache@4.0.2 </tspan>
<tspan x="10" y="378">  │   │ │ ├── pseudomap@1.0.2 </tspan>
<tspan x="10" y="394">  │   │ │ └── yallist@2.1.2 </tspan>
<tspan x="10" y="410">  │   │ └─┬ which@1.2.14 </tspan>
<tspan x="10" y="426">  │   │   └── isexe@2.0.0 </tspan>
<tspan x="10" y="442">  │   ├── is-stream@1.1.0 </tspan>
<tspan x="10" y="458">  │   ├── npm-run-path@1.0.0 </tspan>
<tspan x="10" y="474">  │   ├── object-assign@4.1.1 </tspan>
<tspan x="10" y="490">  │   ├── path-key@1.0.0 </tspan>
<tspan x="10" y="506">  │   └── strip-eof@1.0.0 </tspan>
<tspan x="10" y="522">  └─┬ xdg-trashdir@2.1.0 </tspan>
<tspan x="10" y="538">    ├── @sindresorhus/df@1.0.1 </tspan>
<tspan x="10" y="554">    ├── mount-point@1.2.0 </tspan>
<tspan x="10" y="570">    ├─┬ pinkie-promise@1.0.0 </tspan>
<tspan x="10" y="586">    │ └── pinkie@1.0.0 </tspan>
<tspan x="10" y="602">    ├── user-home@1.1.1 </tspan>
<tspan x="10" y="618">    └── xdg-basedir@1.0.1</tspan>
</text>
</svg>
